<!--
  - Copyright 2024 Goldman Sachs.
  -
  - Licensed under the Apache License, Version 2.0 (the "License");
  - you may not use this file except in compliance with the License.
  - You may obtain a copy of the License at
  -
  -     http://www.apache.org/licenses/LICENSE-2.0
  -
  - Unless required by applicable law or agreed to in writing, software
  - distributed under the License is distributed on an "AS IS" BASIS,
  - WITHOUT WARRANTIES OR CONDITIONS OF ANY KIND, either express or implied.
  - See the License for the specific language governing permissions and
  - limitations under the License.
  -->

<svg xmlns="http://www.w3.org/2000/svg" width="13" height="13" viewBox="0 0 13 13">
  <g fill="none" fill-rule="evenodd">
    <rect width="5" height="1" x="4" fill="#6E6E6E"/>
    <rect width="1.4" height="3" x="5.8" y="5" fill="#6E6E6E"/>
    <path fill="#6E6E6E" fill-rule="nonzero" d="M6.5,11.5 C8.709139,11.5 10.5,9.709139 10.5,7.5 C10.5,5.290861 8.709139,3.5 6.5,3.5 C4.290861,3.5 2.5,5.290861 2.5,7.5 C2.5,9.709139 4.290861,11.5 6.5,11.5 Z M6.5,13 C3.46243388,13 1,10.5375661 1,7.5 C1,4.46243388 3.46243388,2 6.5,2 C9.53756612,2 12,4.46243388 12,7.5 C12,10.5375661 9.53756612,13 6.5,13 Z"/>
    <rect width="1.4" height="2" x="9.701" y="2.301" fill="#6E6E6E" transform="rotate(45 10.4 3.3)"/>
  </g>
</svg>
